<?xml version="1.0" encoding="utf-8"?>
<!-- Generator: Adobe Illustrator 23.0.2, SVG Export Plug-In . SVG Version: 6.00 Build 0)  -->
<svg version="1.1" id="Layer_1" xmlns="http://www.w3.org/2000/svg" xmlns:xlink="http://www.w3.org/1999/xlink" x="0px" y="0px"
	 viewBox="0 0 723.56 264.44" style="enable-background:new 0 0 723.56 264.44;" xml:space="preserve">
<style type="text/css">
	.st0{fill:#FCB717;}
	.st1{fill:none;}
	.st2{fill:#152C53;}
	.st3{fill:#E12426;}
</style>
<g id="Logo">
	<polygon class="st0" points="244.84,207.83 108.41,71.4 76.45,103.36 181.52,208.53 244.84,208.53 	"/>
	<path class="st1" d="M-49.49,16.27h-99.37l61.42,61.42l-61.42-61.42h-375.03c-26.07,0-47.44,21.37-47.44,47.44
		s21.37,47.44,47.44,47.44h474.4c26.07,0,47.44-21.37,47.44-47.44C-2.05,37.54-23.42,16.27-49.49,16.27z"/>
	<line class="st1" x1="-32.01" y1="-5.2" x2="188.91" y2="215.72"/>
	<path class="st1" d="M33.9,84.68l70.41,46.44l6.99,6.99h34.46c26.97,0,48.94-21.97,48.94-48.94c0-26.97-21.97-48.94-48.94-48.94
		h-466.41c-26.97,0-48.94,21.97-48.94,48.94c0,26.97,21.97,48.94,48.94,48.94h185.18L-41,77.19L33.9,84.68z"/>
	<polygon class="st1" points="-73.64,0.29 -39.1,0.29 -29.02,-30.67 -56.02,-37.61 -70.96,-5.7 	"/>
	<path class="st2" d="M145.76,0.29H0.19l41.35,39.95h104.22c26.97,0,48.94,21.97,48.94,48.94c0,26.97-21.97,48.94-48.94,48.94
		h-34.46l39.78,39.78c46.57-2.76,83.57-41.46,83.57-88.71C234.65,40.14,194.8,0.29,145.76,0.29z"/>
	<g>
		<polygon class="st0" points="108.41,135.42 243.54,0.29 179.62,0.29 76.45,103.46 		"/>
	</g>
	<polygon class="st0" points="245.54,208.53 244.84,207.83 244.84,208.53 	"/>
	<path class="st3" d="M209.48,241.89l-28.66-28.66L209.48,241.89z"/>
	<polygon class="st3" points="161.84,194.25 161.84,194.25 180.82,213.22 	"/>
	<g>
		<path class="st0" d="M165.44,261.66l-35.46-35.46l31.86-31.86l-56.53-56.53H41.4L165.44,261.66L165.44,261.66z"/>
		<path class="st0" d="M107,139.41l35.46,35.46l-31.86,31.86l56.53,56.53h63.92L107,139.41L107,139.41z"/>
	</g>
	<g>
		<path class="st0" d="M286.97,262.69v-20.24h-7.44v-4.59h20.34v4.59h-7.44v20.24H286.97z"/>
		<path class="st0" d="M324.56,262.69v-24.83h18.57v4.59h-13.11v5.32h12.03v4.24h-12.03v6.08h13.39v4.59H324.56z"/>
		<path class="st0" d="M390.77,246.21h-5.29c-0.16-1.23-0.76-2.26-1.81-3.09c-1.04-0.83-2.25-1.25-3.62-1.25
			c-2.29,0-4.03,0.88-5.22,2.64c-1.02,1.51-1.53,3.47-1.53,5.88c0,2.32,0.51,4.22,1.53,5.7c1.21,1.74,2.94,2.61,5.22,2.61
			c1.62,0,2.93-0.52,3.93-1.57c0.93-0.97,1.5-2.31,1.7-4h5.29c-0.28,3.08-1.41,5.55-3.39,7.39c-1.98,1.84-4.49,2.76-7.53,2.76
			c-3.73,0-6.72-1.25-8.97-3.76c-2.16-2.39-3.23-5.44-3.23-9.14c0-3.8,1.08-6.91,3.23-9.32c2.23-2.53,5.22-3.79,8.97-3.79
			c2.83,0,5.22,0.78,7.16,2.33C389.26,241.23,390.44,243.43,390.77,246.21z"/>
		<path class="st0" d="M416.53,262.69v-24.83h5.46v9.53h10.05v-9.53h5.46v24.83h-5.46v-10.71h-10.05v10.71H416.53z"/>
		<path class="st0" d="M464.14,262.69v-24.83h5.45l10.41,16.66v-16.66h5.11v24.83h-5.48l-10.37-16.62v16.62H464.14z"/>
		<path class="st0" d="M510.66,250.38c0-3.8,1.08-6.91,3.23-9.32c2.23-2.53,5.22-3.79,8.97-3.79c3.75,0,6.75,1.26,8.97,3.79
			c2.16,2.41,3.23,5.52,3.23,9.32c0,3.71-1.08,6.76-3.23,9.14c-2.25,2.5-5.24,3.76-8.97,3.76c-3.73,0-6.72-1.25-8.97-3.76
			C511.74,257.14,510.66,254.09,510.66,250.38z M516.12,250.38c0,2.32,0.51,4.22,1.53,5.7c1.21,1.74,2.94,2.61,5.22,2.61
			c2.27,0,4.01-0.87,5.22-2.61c1.02-1.48,1.53-3.38,1.53-5.7c0-2.41-0.51-4.37-1.53-5.88c-1.18-1.76-2.92-2.64-5.22-2.64
			s-4.03,0.88-5.22,2.64C516.63,246.02,516.12,247.97,516.12,250.38z"/>
		<path class="st0" d="M560.63,262.69v-24.83h5.46v20.24h12.1v4.59H560.63z"/>
		<path class="st0" d="M602,250.38c0-3.8,1.08-6.91,3.23-9.32c2.23-2.53,5.22-3.79,8.97-3.79c3.75,0,6.75,1.26,8.97,3.79
			c2.16,2.41,3.23,5.52,3.23,9.32c0,3.71-1.08,6.76-3.23,9.14c-2.25,2.5-5.24,3.76-8.97,3.76c-3.73,0-6.72-1.25-8.97-3.76
			C603.08,257.14,602,254.09,602,250.38z M607.46,250.38c0,2.32,0.51,4.22,1.53,5.7c1.21,1.74,2.94,2.61,5.22,2.61
			c2.27,0,4.01-0.87,5.22-2.61c1.02-1.48,1.53-3.38,1.53-5.7c0-2.41-0.51-4.37-1.53-5.88c-1.18-1.76-2.92-2.64-5.22-2.64
			s-4.03,0.88-5.22,2.64C607.97,246.02,607.46,247.97,607.46,250.38z"/>
		<path class="st0" d="M670.47,262.69l-0.56-2.82c-1.76,2.27-4.03,3.41-6.82,3.41c-3.73,0-6.72-1.25-8.97-3.76
			c-2.16-2.39-3.23-5.44-3.23-9.14c0-3.8,1.08-6.91,3.23-9.32c2.23-2.53,5.22-3.79,8.97-3.79c2.67,0,4.97,0.75,6.92,2.26
			c2.09,1.62,3.27,3.79,3.55,6.5h-5.22c-0.3-1.34-0.92-2.38-1.86-3.09c-0.94-0.72-2.07-1.08-3.39-1.08c-2.29,0-4.03,0.88-5.22,2.64
			c-1.02,1.51-1.53,3.47-1.53,5.88c0,2.32,0.51,4.22,1.53,5.7c1.21,1.74,2.94,2.61,5.22,2.61c3.62,0,5.59-1.79,5.91-5.36h-5.49
			v-4.07h10.43v13.42H670.47z"/>
		<path class="st0" d="M706.63,262.69v-9.67l-9.14-15.16h6.15l5.81,9.8l5.77-9.8h6.08l-9.21,15.3v9.53H706.63z"/>
	</g>
	<g>
		<path class="st2" d="M279.47,219.76v-83.51h45.03c7.33,0,13.29,2.26,17.89,6.78c4.37,4.37,6.55,9.79,6.55,16.26
			c0,10.37-4.41,17.35-13.22,20.94v0.23c7.33,1.87,11.38,8.38,12.16,19.53c0.23,3.35,0.47,6.71,0.7,10.06
			c0.47,4.52,1.4,7.76,2.81,9.71h-18.36c-0.86-2.11-1.52-5.26-1.99-9.47c-0.31-3.51-0.62-7.02-0.94-10.53
			c-0.63-4.52-1.97-7.76-4.04-9.71c-2.07-1.95-5.36-2.92-9.88-2.92h-18.36v32.63H279.47z M297.83,150.52v23.51h20.12
			c8.42,0,12.63-3.98,12.63-11.93c0-7.72-4.21-11.58-12.63-11.58H297.83z"/>
		<path class="st2" d="M364.84,219.76v-83.51h18.36v34.62l32.63-34.62h22.92l-32.63,32.98l35.79,50.53h-23.04l-25.15-37.54
			l-10.53,10.64v26.9H364.84z"/>
		<path class="st2" d="M585.66,136.25l-22.46,83.51h-18.25l-14.15-56.84h-0.23l-13.92,56.84h-18.6l-22.11-83.51h18.36l13.22,56.84
			h0.23l14.5-56.84h17.19l14.27,57.54h0.23l13.68-57.54H585.66z"/>
		<path class="st2" d="M650.57,193.56h-43.63c0.47,10.22,5.42,15.32,14.85,15.32c3.2,0,6.08-0.86,8.66-2.57
			c2.42-1.48,3.9-3.23,4.44-5.26h14.62c-4.44,13.57-13.88,20.35-28.3,20.35c-9.43,0-16.94-2.94-22.51-8.83
			c-5.58-5.89-8.36-13.55-8.36-22.98c0-9.2,2.87-16.82,8.6-22.87c5.73-6.04,13.16-9.06,22.28-9.06c9.83,0,17.43,3.67,22.81,10.99
			C649.01,175.35,651.2,183.66,650.57,193.56z M606.95,183.03h27.02c-1.56-8.58-5.96-12.87-13.22-12.87
			c-4.68,0-8.27,1.56-10.76,4.68C608.12,177.19,607.1,179.91,606.95,183.03z"/>
		<path class="st2" d="M661.33,219.76v-83.51h16.61v30.41h0.23c3.98-6,10.33-9.01,19.06-9.01c6.71,0,12.4,2.53,17.08,7.6
			c5.3,5.85,7.95,13.92,7.95,24.21c0,10.37-2.65,18.48-7.95,24.33c-4.68,5.07-10.37,7.6-17.08,7.6c-9.82,0-16.45-3.12-19.88-9.36
			h-0.23v7.72H661.33z M705.66,189.58c0-5.54-1.13-10.06-3.39-13.57c-2.5-3.9-6.08-5.85-10.76-5.85s-8.27,1.95-10.76,5.85
			c-2.26,3.51-3.39,8.03-3.39,13.57c0,5.46,1.13,9.94,3.39,13.45c2.57,3.9,6.16,5.85,10.76,5.85c4.6,0,8.19-1.95,10.76-5.85
			C704.53,199.52,705.66,195.04,705.66,189.58z"/>
	</g>
</g>
</svg>
