<?xml version="1.0" encoding="utf-8"?>
<!-- Generator: Adobe Illustrator 23.0.2, SVG Export Plug-In . SVG Version: 6.00 Build 0)  -->
<svg version="1.1" id="Layer_1" xmlns="http://www.w3.org/2000/svg" xmlns:xlink="http://www.w3.org/1999/xlink" x="0px" y="0px"
	 viewBox="0 0 245.91 263.26" style="enable-background:new 0 0 245.91 263.26;" xml:space="preserve">
<style type="text/css">
	.st0{fill:#FCB717;}
	.st1{fill:none;}
	.st2{fill:#152C53;}
	.st3{fill:#E12426;}
</style>
<g id="Logo">
	<polygon class="st0" points="244.84,207.83 108.41,71.4 76.45,103.36 181.52,208.53 244.84,208.53 	"/>
	<path class="st1" d="M-49.49,16.27h-99.37l61.42,61.42l-61.42-61.42h-375.03c-26.07,0-47.44,21.37-47.44,47.44
		s21.37,47.44,47.44,47.44h474.4c26.07,0,47.44-21.37,47.44-47.44C-2.05,37.54-23.42,16.27-49.49,16.27z"/>
	<line class="st1" x1="-32.01" y1="-5.2" x2="188.91" y2="215.72"/>
	<path class="st1" d="M33.9,84.68l70.41,46.44l6.99,6.99h34.46c26.97,0,48.94-21.97,48.94-48.94c0-26.97-21.97-48.94-48.94-48.94
		h-466.41c-26.97,0-48.94,21.97-48.94,48.94c0,26.97,21.97,48.94,48.94,48.94h185.18L-41,77.19L33.9,84.68z"/>
	<polygon class="st1" points="-73.64,0.29 -39.1,0.29 -29.02,-30.67 -56.02,-37.61 -70.96,-5.7 	"/>
	<path class="st2" d="M145.76,0.29H0.19l41.35,39.95h104.22c26.97,0,48.94,21.97,48.94,48.94c0,26.97-21.97,48.94-48.94,48.94
		h-34.46l39.78,39.78c46.57-2.76,83.57-41.46,83.57-88.71C234.65,40.14,194.8,0.29,145.76,0.29z"/>
	<g>
		<polygon class="st0" points="108.41,135.42 243.54,0.29 179.62,0.29 76.45,103.46 		"/>
	</g>
	<polygon class="st0" points="245.54,208.53 244.84,207.83 244.84,208.53 	"/>
	<path class="st3" d="M209.48,241.89l-28.66-28.66L209.48,241.89z"/>
	<polygon class="st3" points="161.84,194.25 161.84,194.25 180.82,213.22 	"/>
	<g>
		<path class="st0" d="M165.44,261.66l-35.46-35.46l31.86-31.86l-56.53-56.53H41.4L165.44,261.66L165.44,261.66z"/>
		<path class="st0" d="M107,139.41l35.46,35.46l-31.86,31.86l56.53,56.53h63.92L107,139.41L107,139.41z"/>
	</g>
</g>
</svg>
